<svg width="46" height="23" viewBox="0 0 46 23" fill="none" xmlns="http://www.w3.org/2000/svg">
<path d="M8.74498 -3.57628e-07C10.295 -3.57628e-07 11.565 0.215 12.555 0.644999C13.555 1.075 14.295 1.695 14.775 2.505C15.255 3.305 15.495 4.25 15.495 5.34C15.495 6.43 15.28 7.36 14.85 8.13C14.42 8.89 13.875 9.48 13.215 9.9C12.555 10.31 11.885 10.54 11.205 10.59C11.915 10.61 12.645 10.795 13.395 11.145C14.145 11.485 14.775 12.04 15.285 12.81C15.795 13.57 16.05 14.585 16.05 15.855C16.05 17.055 15.805 18.13 15.315 19.08C14.835 20.02 14.06 20.765 12.99 21.315C11.92 21.855 10.49 22.125 8.69998 22.125H-1.69575e-05V-3.57628e-07H8.74498ZM4.45498 10.245L2.90998 8.94H7.31998C8.49998 8.94 9.38498 8.69 9.97498 8.19C10.565 7.68 10.86 6.995 10.86 6.135C10.86 5.555 10.735 5.08 10.485 4.71C10.235 4.33 9.86498 4.05 9.37498 3.87C8.88498 3.69 8.27998 3.6 7.55998 3.6H2.35498L4.45498 1.38V10.245ZM7.79998 18.51C8.93998 18.51 9.80498 18.25 10.395 17.73C10.995 17.2 11.295 16.485 11.295 15.585C11.295 15.075 11.205 14.63 11.025 14.25C10.855 13.87 10.61 13.555 10.29 13.305C9.96998 13.045 9.57998 12.85 9.11998 12.72C8.66998 12.58 8.16998 12.51 7.61998 12.51H2.90998L4.45498 11.22V20.73L2.35498 18.51H7.79998ZM19.9987 3.6L22.0987 1.38V10.545L21.0487 9.225H29.2087V12.825H21.0487L22.0987 11.505V20.745L19.9987 18.525H30.8737V22.125H17.4187V-3.57628e-07H30.8737V3.6H19.9987ZM32.7281 22.125V-3.57628e-07H37.3931V20.73L35.2931 18.33H45.6281V22.125H32.7281Z" fill="#B7282D"/>
</svg>
